{
  "accessors": [
    {
      "bufferView": 2,
      "componentType": 5126,
      "count": 1512,
      "max": [
        0.98337012529373169,
        0.78985822200775146,
        2.5917463302612305
      ],
      "min": [
        -1.2284349203109741,
        -1.6470264196395874,
        -1.2591800689697266
      ],
      "type": "VEC3"
    },
    {
      "bufferView": 2,
      "byteOffset": 18144,
      "componentType": 5126,
      "count": 1512,
      "max": [
        0.99999070167541504,
        0.99374854564666748,
        1
      ],
      "min": [
        -0.99999070167541504,
        -0.99393272399902344,
        -1
      ],
      "type": "VEC3"
    },
    {
      "bufferView": 3,
      "componentType": 5126,
      "count": 1512,
      "max": [
        1,
        1,
        0.99997603893280029,
        1
      ],
      "min": [
        -1,
        -0.99999701976776123,
        -0.9999886155128479,
        1
      ],
      "type": "VEC4"
    },
    {
      "bufferView": 1,
      "componentType": 5126,
      "count": 1512,
      "max": [
        0.99763661623001099,
        0.95905697345733643
      ],
      "min": [
        0.0023663381580263376,
        0.0023639029823243618
      ],
      "type": "VEC2"
    },
    {
      "bufferView": 0,
      "componentType": 5125,
      "count": 2268,
      "max": [
        1511
      ],
      "min": [
        0
      ],
      "type": "SCALAR"
    },
    {
      "bufferView": 2,
      "byteOffset": 36288,
      "componentType": 5126,
      "count": 207,
      "max": [
        0.86117947101593018,
        0.83490270376205444,
        1.7813493013381958
      ],
      "min": [
        -0.87085545063018799,
        -1.5235234498977661,
        -1.9869860410690308
      ],
      "type": "VEC3"
    },
    {
      "bufferView": 2,
      "byteOffset": 38772,
      "componentType": 5126,
      "count": 207,
      "max": [
        0.32465848326683044,
        -0.91746503114700317,
        0.39363566040992737
      ],
      "min": [
        -0.32465848326683044,
        -1,
        -0.39781638979911804
      ],
      "type": "VEC3"
    },
    {
      "bufferView": 3,
      "byteOffset": 24192,
      "componentType": 5126,
      "count": 207,
      "max": [
        0.0060382857918739319,
        0.39781421422958374,
        1,
        1
      ],
      "min": [
        -0.0090131666511297226,
        -0.39363452792167664,
        -0.99998611211776733,
        1
      ],
      "type": "VEC4"
    },
    {
      "bufferView": 1,
      "byteOffset": 12096,
      "componentType": 5126,
      "count": 207,
      "max": [
        0.99752593040466309,
        0.9950825572013855
      ],
      "min": [
        0.0024921030271798372,
        0.0024697121698409319
      ],
      "type": "VEC2"
    },
    {
      "bufferView": 0,
      "byteOffset": 9072,
      "componentType": 5125,
      "count": 960,
      "max": [
        206
      ],
      "min": [
        0
      ],
      "type": "SCALAR"
    },
    {
      "bufferView": 2,
      "byteOffset": 41256,
      "componentType": 5126,
      "count": 316,
      "max": [
        0.66738128662109375,
        0.50401449203491211,
        0.61461520195007324
      ],
      "min": [
        -0.40069818496704102,
        -0.4721977710723877,
        -0.76511096954345703
      ],
      "type": "VEC3"
    },
    {
      "bufferView": 2,
      "byteOffset": 45048,
      "componentType": 5126,
      "count": 316,
      "max": [
        1,
        1,
        0.82912832498550415
      ],
      "min": [
        -1,
        -1,
        -0.9805414080619812
      ],
      "type": "VEC3"
    },
    {
      "bufferView": 3,
      "byteOffset": 27504,
      "componentType": 5126,
      "count": 316,
      "max": [
        0.99999386072158813,
        0.92717444896697998,
        0.78389275074005127,
        1
      ],
      "min": [
        -0.86010932922363281,
        -0.99996167421340942,
        -1,
        1
      ],
      "type": "VEC4"
    },
    {
      "bufferView": 1,
      "byteOffset": 13752,
      "componentType": 5126,
      "count": 316,
      "max": [
        0.99730056524276733,
        0.99722915887832642
      ],
      "min": [
        0.0026954372879117727,
        0.0026943087577819824
      ],
      "type": "VEC2"
    },
    {
      "bufferView": 0,
      "byteOffset": 12912,
      "componentType": 5125,
      "count": 1122,
      "max": [
        315
      ],
      "min": [
        0
      ],
      "type": "SCALAR"
    },
    {
      "bufferView": 2,
      "byteOffset": 48840,
      "componentType": 5126,
      "count": 1118,
      "max": [
        1.0414149761199951,
        1.1414361000061035,
        2.583482027053833
      ],
      "min": [
        -1.2585530281066895,
        -1.5732007026672363,
        -4.210085391998291
      ],
      "type": "VEC3"
    },
    {
      "bufferView": 2,
      "byteOffset": 62256,
      "componentType": 5126,
      "count": 1118,
      "max": [
        1,
        1,
        1
      ],
      "min": [
        -1,
        -1,
        -0.99804234504699707
      ],
      "type": "VEC3"
    },
    {
      "bufferView": 3,
      "byteOffset": 32560,
      "componentType": 5126,
      "count": 1118,
      "max": [
        1,
        1,
        0.99999994039535522,
        1
      ],
      "min": [
        -1,
        -1,
        -1,
        1
      ],
      "type": "VEC4"
    },
    {
      "bufferView": 1,
      "byteOffset": 16280,
      "componentType": 5126,
      "count": 1118,
      "max": [
        0.9968147873878479,
        0.99751865863800049
      ],
      "min": [
        0.0024524892214685678,
        0.0024531122762709856
      ],
      "type": "VEC2"
    },
    {
      "bufferView": 0,
      "byteOffset": 17400,
      "componentType": 5125,
      "count": 3024,
      "max": [
        1117
      ],
      "min": [
        0
      ],
      "type": "SCALAR"
    },
    {
      "bufferView": 2,
      "byteOffset": 75672,
      "componentType": 5126,
      "count": 416,
      "max": [
        1.4080580472946167,
        1.0725674629211426,
        1.8662309646606445
      ],
      "min": [
        -1.625196099281311,
        -1.6890215873718262,
        -1.9714038372039795
      ],
      "type": "VEC3"
    },
    {
      "bufferView": 2,
      "byteOffset": 80664,
      "componentType": 5126,
      "count": 416,
      "max": [
        1,
        1,
        0.99144506454467773
      ],
      "min": [
        -1,
        -1,
        -1
      ],
      "type": "VEC3"
    },
    {
      "bufferView": 3,
      "byteOffset": 50448,
      "componentType": 5126,
      "count": 416,
      "max": [
        1,
        1,
        1,
        1
      ],
      "min": [
        -1,
        -1,
        -0.99999856948852539,
        1
      ],
      "type": "VEC4"
    },
    {
      "bufferView": 1,
      "byteOffset": 25224,
      "componentType": 5126,
      "count": 416,
      "max": [
        0.98708248138427734,
        0.97013986110687256
      ],
      "min": [
        0.0024601668119430542,
        0.002453662920743227
      ],
      "type": "VEC2"
    },
    {
      "bufferView": 0,
      "byteOffset": 29496,
      "componentType": 5125,
      "count": 948,
      "max": [
        415
      ],
      "min": [
        0
      ],
      "type": "SCALAR"
    }
  ],
  "asset": {
    "extras": {
      "author": "Batuhan13 (https://sketchfab.com/Batuhan13)",
      "license": "CC-BY-4.0 (http://creativecommons.org/licenses/by/4.0/)",
      "source": "https://sketchfab.com/3d-models/phone-box-low-6051df01fb0d4770ae6b42e35e6730bd",
      "title": "Phone Box Low"
    },
    "generator": "Sketchfab-6.84.0",
    "version": "2.0"
  },
  "bufferViews": [
    {
      "buffer": 0,
      "byteLength": 33288,
      "byteOffset": 0,
      "name": "floatBufferViews",
      "target": 34963
    },
    {
      "buffer": 0,
      "byteLength": 28552,
      "byteOffset": 33288,
      "byteStride": 8,
      "name": "floatBufferViews",
      "target": 34962
    },
    {
      "buffer": 0,
      "byteLength": 85656,
      "byteOffset": 61840,
      "byteStride": 12,
      "name": "floatBufferViews",
      "target": 34962
    },
    {
      "buffer": 0,
      "byteLength": 57104,
      "byteOffset": 147496,
      "byteStride": 16,
      "name": "floatBufferViews",
      "target": 34962
    }
  ],
  "buffers": [
    {
      "byteLength": 204600,
      "uri": "scene.bin"
    }
  ],
  "images": [
    {
      "uri": "textures/Material_baseColor.png"
    },
    {
      "uri": "textures/Material_normal.png"
    },
    {
      "uri": "textures/Emission_baseColor.png"
    },
    {
      "uri": "textures/Emission_metallicRoughness.png"
    },
    {
      "uri": "textures/Emission_normal.png"
    },
    {
      "uri": "textures/Antenna_baseColor.png"
    },
    {
      "uri": "textures/Antenna_metallicRoughness.png"
    },
    {
      "uri": "textures/Antenna_normal.png"
    },
    {
      "uri": "textures/Metal_baseColor.png"
    },
    {
      "uri": "textures/Metal_metallicRoughness.png"
    },
    {
      "uri": "textures/Metal_normal.png"
    }
  ],
  "materials": [
    {
      "doubleSided": true,
      "emissiveFactor": [
        0,
        0,
        0
      ],
      "name": "Material",
      "normalTexture": {
        "index": 1,
        "scale": 1,
        "texCoord": 0
      },
      "pbrMetallicRoughness": {
        "baseColorFactor": [
          1,
          1,
          1,
          1
        ],
        "baseColorTexture": {
          "index": 0,
          "texCoord": 0
        },
        "metallicFactor": 0,
        "roughnessFactor": 0.42590910015684186
      }
    },
    {
      "doubleSided": true,
      "emissiveFactor": [
        1,
        1,
        1
      ],
      "emissiveTexture": {
        "index": 2,
        "texCoord": 0
      },
      "name": "Emission",
      "normalTexture": {
        "index": 4,
        "scale": 1,
        "texCoord": 0
      },
      "pbrMetallicRoughness": {
        "baseColorFactor": [
          1,
          1,
          1,
          1
        ],
        "baseColorTexture": {
          "index": 2,
          "texCoord": 0
        },
        "metallicFactor": 1,
        "metallicRoughnessTexture": {
          "index": 3,
          "texCoord": 0
        },
        "roughnessFactor": 0.031969706217447914
      }
    },
    {
      "doubleSided": true,
      "emissiveFactor": [
        0,
        0,
        0
      ],
      "name": "Antenna",
      "normalTexture": {
        "index": 7,
        "scale": 1,
        "texCoord": 0
      },
      "pbrMetallicRoughness": {
        "baseColorFactor": [
          1,
          1,
          1,
          1
        ],
        "baseColorTexture": {
          "index": 5,
          "texCoord": 0
        },
        "metallicFactor": 1,
        "metallicRoughnessTexture": {
          "index": 6,
          "texCoord": 0
        },
        "roughnessFactor": 0.30469697894472064
      }
    },
    {
      "doubleSided": true,
      "emissiveFactor": [
        0,
        0,
        0
      ],
      "name": "Metal",
      "normalTexture": {
        "index": 10,
        "scale": 1,
        "texCoord": 0
      },
      "pbrMetallicRoughness": {
        "baseColorFactor": [
          1,
          1,
          1,
          1
        ],
        "baseColorTexture": {
          "index": 8,
          "texCoord": 0
        },
        "metallicFactor": 1,
        "metallicRoughnessTexture": {
          "index": 9,
          "texCoord": 0
        },
        "roughnessFactor": 0.28651516076290245
      }
    }
  ],
  "meshes": [
    {
      "name": "Plane.002_Material_0",
      "primitives": [
        {
          "attributes": {
            "NORMAL": 1,
            "POSITION": 0,
            "TANGENT": 2,
            "TEXCOORD_0": 3
          },
          "indices": 4,
          "material": 0,
          "mode": 4
        }
      ]
    },
    {
      "name": "Plane.000_Emission_0",
      "primitives": [
        {
          "attributes": {
            "NORMAL": 6,
            "POSITION": 5,
            "TANGENT": 7,
            "TEXCOORD_0": 8
          },
          "indices": 9,
          "material": 1,
          "mode": 4
        }
      ]
    },
    {
      "name": "Plane.004_Antenna_0",
      "primitives": [
        {
          "attributes": {
            "NORMAL": 11,
            "POSITION": 10,
            "TANGENT": 12,
            "TEXCOORD_0": 13
          },
          "indices": 14,
          "material": 2,
          "mode": 4
        }
      ]
    },
    {
      "name": "Plane.013_Metal_0",
      "primitives": [
        {
          "attributes": {
            "NORMAL": 16,
            "POSITION": 15,
            "TANGENT": 17,
            "TEXCOORD_0": 18
          },
          "indices": 19,
          "material": 3,
          "mode": 4
        }
      ]
    },
    {
      "name": "Plane.003_Metal_0",
      "primitives": [
        {
          "attributes": {
            "NORMAL": 21,
            "POSITION": 20,
            "TANGENT": 22,
            "TEXCOORD_0": 23
          },
          "indices": 24,
          "material": 3,
          "mode": 4
        }
      ]
    }
  ],
  "nodes": [
    {
      "children": [
        1
      ],
      "name": "RootNode (gltf orientation matrix)",
      "rotation": [
        -0.70710678118654746,
        -0,
        -0,
        0.70710678118654757
      ]
    },
    {
      "children": [
        2
      ],
      "name": "RootNode (model correction matrix)"
    },
    {
      "children": [
        3
      ],
      "matrix": [
        1,
        0,
        0,
        0,
        0,
        0,
        1,
        0,
        0,
        -1,
        0,
        0,
        0,
        0,
        0,
        1
      ],
      "name": "PhoneBoxLow.fbx"
    },
    {
      "children": [
        4,
        6,
        8,
        10,
        12
      ],
      "name": "RootNode"
    },
    {
      "children": [
        5
      ],
      "matrix": [
        100,
        0,
        0,
        0,
        0,
        -1.6292067939183141e-05,
        -99.999999999998678,
        0,
        0,
        99.999999999998678,
        -1.6292067939183141e-05,
        0,
        18.827041625976562,
        397.553955078125,
        -41.758335113525391,
        1
      ],
      "name": "Plane.002"
    },
    {
      "mesh": 0,
      "name": "Plane.002_Material_0"
    },
    {
      "children": [
        7
      ],
      "matrix": [
        100,
        0,
        0,
        0,
        -0,
        -1.6292067939183141e-05,
        -99.999999999998678,
        0,
        0,
        99.999999999998678,
        -1.6292067939183141e-05,
        0,
        -0.59029233455657959,
        494.7926025390625,
        -28.387725830078125,
        1
      ],
      "name": "Plane.000"
    },
    {
      "mesh": 1,
      "name": "Plane.000_Emission_0"
    },
    {
      "children": [
        9
      ],
      "matrix": [
        100,
        0,
        0,
        0,
        0,
        -1.6292067939183141e-05,
        -99.999999999998678,
        0,
        0,
        99.999999999998678,
        -1.6292067939183141e-05,
        0,
        100.45107269287109,
        686.8282470703125,
        -35.842788696289062,
        1
      ],
      "name": "Plane.004"
    },
    {
      "mesh": 2,
      "name": "Plane.004_Antenna_0"
    },
    {
      "children": [
        11
      ],
      "matrix": [
        100,
        0,
        0,
        0,
        0,
        -1.6292067939183141e-05,
        -99.999999999998678,
        0,
        0,
        99.999999999998678,
        -1.6292067939183141e-05,
        0,
        9.7828235626220703,
        423.69403076171875,
        -30.753696441650391,
        1
      ],
      "name": "Plane.013"
    },
    {
      "mesh": 3,
      "name": "Plane.013_Metal_0"
    },
    {
      "children": [
        13
      ],
      "matrix": [
        100,
        0,
        0,
        0,
        0,
        -1.6292067939183141e-05,
        -99.999999999998678,
        0,
        0,
        99.999999999998678,
        -1.6292067939183141e-05,
        0,
        9.7828149795532227,
        423.69403076171875,
        -30.753696441650391,
        1
      ],
      "name": "Plane.003"
    },
    {
      "mesh": 4,
      "name": "Plane.003_Metal_0"
    }
  ],
  "samplers": [
    {
      "magFilter": 9729,
      "minFilter": 9987,
      "wrapS": 10497,
      "wrapT": 10497
    }
  ],
  "scene": 0,
  "scenes": [
    {
      "name": "OSG_Scene",
      "nodes": [
        0
      ]
    }
  ],
  "textures": [
    {
      "sampler": 0,
      "source": 0
    },
    {
      "sampler": 0,
      "source": 1
    },
    {
      "sampler": 0,
      "source": 2
    },
    {
      "sampler": 0,
      "source": 3
    },
    {
      "sampler": 0,
      "source": 4
    },
    {
      "sampler": 0,
      "source": 5
    },
    {
      "sampler": 0,
      "source": 6
    },
    {
      "sampler": 0,
      "source": 7
    },
    {
      "sampler": 0,
      "source": 8
    },
    {
      "sampler": 0,
      "source": 9
    },
    {
      "sampler": 0,
      "source": 10
    }
  ]
}

